<svg xmlns="http://www.w3.org/2000/svg" viewBox="0 0 34.94 34.93"><defs><style>.cls-1{fill:#231f20;}</style></defs><g id="Layer_2" data-name="Layer 2"><g id="Layer_1-2" data-name="Layer 1"><path class="cls-1" d="M20.46,5.83H18.83c-.31,0-.58,0-.73-.36s0-.55.25-.77L22.75.31c.41-.41.67-.41,1.08,0l4.4,4.4c.22.22.39.44.25.77s-.42.36-.73.36H25l-.9,4.07h8.81c.66,0,.83.17.83.84v20.7c.21,0,.38,0,.56,0a.57.57,0,0,1,.6.6c0,.42,0,.85,0,1.27a1.74,1.74,0,0,1-1.64,1.62H2a1.79,1.79,0,0,1-2-2v-.77c0-.49.21-.69.72-.7h.45V10.78c0-.72.15-.88.87-.88H17.21a.82.82,0,0,0,.64-.26A12.57,12.57,0,0,0,20.34,6.1ZM2.36,11.08V31.42H3.49V13.15a2.71,2.71,0,0,1,0-.4.52.52,0,0,1,.49-.5c.6,0,1.2,0,1.81,0V13.4H4.68v18H30.25v-18H24.48V12.23h6.09c.72,0,.87.16.87.88V31.42h1.14V11.08H23.94a.47.47,0,0,0-.5.33A17.79,17.79,0,0,1,12.91,21a27.7,27.7,0,0,1-5.83,1.13.57.57,0,0,1-.67-.63q0-3.79,0-7.57a.6.6,0,0,1,.75-.65,12.3,12.3,0,0,0,6.85-1c.71-.31,1.37-.72,2-1.09l0-.1ZM20.12,4.66h1.11c.55,0,.81.38.61.88A13.7,13.7,0,0,1,10,14.48a22.22,22.22,0,0,1-2.45,0v6.38l.46-.05a18.6,18.6,0,0,0,5-1.14A16.54,16.54,0,0,0,23.81,5.37c.06-.53.24-.7.76-.71h1.85L23.27,1.51Zm13.65,28H1.19c-.1,1,.05,1.14,1,1.14h31a.59.59,0,0,0,.63-.61C33.78,33,33.77,32.82,33.77,32.63Z"/><path class="cls-1" d="M14.56,1.18V0h1.16V1.18H14.56Z"/><path class="cls-1" d="M14.56,2.33H13.42V1.18h1.13V2.34Z"/><path class="cls-1" d="M15.72,1.18h1.14V2.33H15.73V1.17Z"/><path class="cls-1" d="M15.72,2.33V3.47H14.56V2.33h1.16Z"/><path class="cls-1" d="M30.29,3.47V2.36h1.13V3.47Z"/><path class="cls-1" d="M13.37,5.81H12.25V4.69h1.12Z"/><path class="cls-1" d="M32.61,5.83V4.69h1.15V5.83H32.61Z"/><path class="cls-1" d="M32.61,7H31.47V5.83H32.6V7Z"/><path class="cls-1" d="M33.76,5.83h1.15V7H33.78V5.82Z"/><path class="cls-1" d="M33.77,7V8.13H32.61V7h1.16Z"/><path class="cls-1" d="M19.8,29.68h2.33v-13c0-.81.12-.94.95-.94H26c.61,0,.79.19.79.81V29.68h2.3v1.15H5.84V29.71H8.15V24.09c0-.62.18-.8.81-.8h3.12c.53,0,.73.21.73.73v5.65h2.33V21.19c0-.64.17-.81.82-.81h3.1c.54,0,.74.2.74.75v8.55Zm5.79,0V16.91H23.31V29.68Zm-7,0V21.57H16.32v8.11ZM9.34,24.47v5.19h2.29V24.47Z"/><path class="cls-1" d="M9.3,18.58c1.13-.07,2.1-.42,4.36-1.57l.68,1c-.76.37-1.47.75-2.21,1.07a9.9,9.9,0,0,1-3.22.71c-.53,0-.75-.19-.76-.72V17.49H9.3Z"/><path class="cls-1" d="M8.17,16.29V15.17H9.29v1.12Z"/></g></g></svg>