<svg xmlns="http://www.w3.org/2000/svg" viewBox="0 0 38.21 38.17"><defs><style>.cls-1{fill:#231f20;}</style></defs><g id="Layer_2" data-name="Layer 2"><g id="Layer_1-2" data-name="Layer 1"><path class="cls-1" d="M26.13,19.71H24.86V7.64H3.43A1.93,1.93,0,0,0,1.32,9.77v2.29H0A24.75,24.75,0,0,1,.19,8.72,3,3,0,0,1,3.37,6.37H24.83V5.1H23.7a.66.66,0,0,1-.7-.41.64.64,0,0,1,.2-.75c1.23-1.23,2.45-2.46,3.68-3.68a.64.64,0,0,1,1,0L31.6,4a.62.62,0,0,1,.19.75.65.65,0,0,1-.67.4H30V6.35l.34,0h2a3.18,3.18,0,0,1,3.33,3.35c0,3.76,0,7.53,0,11.29v1.24H34.39V9.87a2,2,0,0,0-2.21-2.23H30V19.06H28.67V4.76c0-.74.16-.91.8-.94L27.36,1.71,25.26,3.8l.27,0a.63.63,0,0,1,.59.59,1.93,1.93,0,0,1,0,.24V19.71Z"/><path class="cls-1" d="M10.86,24.16h1.27V14.91c0-.73.19-.91.92-.91h3.38c.57,0,.79.23.79.8v9.36h1.27V10.47c0-.74.18-.92.91-.92,1.15,0,2.3,0,3.46,0a.64.64,0,0,1,.72.71V20.87a.33.33,0,0,1,0,.1H22.32V10.85H19.78V25.43H3.26V24.19H5.77V19.27c0-.6.22-.81.82-.82H10c.6,0,.82.22.82.82Zm5.06,0V15.31H13.43v8.85ZM7.08,19.74v4.41H9.56V19.74Z"/><path class="cls-1" d="M10.88,38.14V36.9h1.41l1.53-5.09H3.47A3.19,3.19,0,0,1,.05,28.39v-15H1.3V26.72H19.1V28H1.39a2,2,0,0,0,1.94,2.56h16.4v1.27H15.47c-.18,0-.33,0-.39.22-.47,1.59-.95,3.17-1.42,4.75,0,0,0,.06,0,.1h8.41l-.69-2.33,1.2-.38.83,2.73h1.41v1.24Z"/><path class="cls-1" d="M31.92,34.59a7.65,7.65,0,1,1,2.7-2.7L37,34.29c.21.21.43.42.64.65a1.89,1.89,0,0,1,0,2.68,1.87,1.87,0,0,1-2.65,0c-1-.93-1.92-1.9-2.87-2.86ZM28,21.63A6.36,6.36,0,1,0,34.39,28,6.38,6.38,0,0,0,28,21.63Zm5,12.21,2.88,2.88a.62.62,0,0,0,.89,0,.61.61,0,0,0,0-.89c-.95-1-1.92-1.92-2.88-2.88Z"/><path class="cls-1" d="M31.23,1.27V0A3.76,3.76,0,0,1,35,3.8H33.77A2.73,2.73,0,0,0,33,2,2.7,2.7,0,0,0,31.23,1.27Z"/><path class="cls-1" d="M3.24,10.15V8.94H4.47v1.21Z"/><path class="cls-1" d="M5.8,8.93H7v1.24H5.8Z"/><path class="cls-1" d="M9.57,8.93v1.23H8.34V8.93Z"/><path class="cls-1" d="M28.08,22.91a5.09,5.09,0,1,1-5.13,5A5.09,5.09,0,0,1,28.08,22.91ZM24.22,28A3.82,3.82,0,1,0,28,24.18,3.82,3.82,0,0,0,24.22,28Z"/><path class="cls-1" d="M28,25.47V26.7A1.37,1.37,0,0,0,26.74,28H25.53A2.46,2.46,0,0,1,28,25.47Z"/></g></g></svg>